<?xml version="1.0" encoding="utf-8"?>
<!-- Generator: Adobe Illustrator 24.0.1, SVG Export Plug-In . SVG Version: 6.00 Build 0)  -->
<svg version="1.1" id="图层_1" xmlns="http://www.w3.org/2000/svg" xmlns:xlink="http://www.w3.org/1999/xlink" x="0px" y="0px"
	 viewBox="0 0 1024 1024" style="enable-background:new 0 0 1024 1024;" xml:space="preserve">
<style type="text/css">
	.st0{fill:url(#SVGID_1_);}
	.st1{fill:url(#SVGID_2_);}
	.st2{fill:url(#SVGID_3_);}
	.st3{fill:url(#SVGID_4_);}
	.st4{fill:url(#SVGID_5_);}
	.st5{fill:url(#SVGID_6_);}
	.st6{fill:url(#SVGID_7_);}
	.st7{fill:url(#SVGID_8_);}
	.st8{fill:url(#SVGID_9_);}
	.st9{fill:url(#SVGID_10_);}
	.st10{fill:url(#SVGID_11_);}
	.st11{fill:url(#SVGID_12_);}
	.st12{fill:url(#SVGID_13_);}
	.st13{fill:url(#SVGID_14_);}
	.st14{fill:url(#SVGID_15_);}
	.st15{fill:url(#SVGID_16_);}
	.st16{fill:url(#SVGID_17_);}
	.st17{fill:url(#SVGID_18_);}
	.st18{fill:url(#SVGID_19_);}
	.st19{fill:url(#SVGID_20_);}
	.st20{fill:url(#SVGID_21_);}
	.st21{fill:url(#SVGID_22_);}
	.st22{fill:url(#SVGID_23_);}
	.st23{fill:url(#SVGID_24_);}
	.st24{fill:url(#SVGID_25_);}
	.st25{fill:url(#SVGID_26_);}
	.st26{fill-rule:evenodd;clip-rule:evenodd;fill:#F5986A;}
	.st27{fill-rule:evenodd;clip-rule:evenodd;fill:#F8AD72;}
	.st28{fill-rule:evenodd;clip-rule:evenodd;fill:#272B73;}
	.st29{fill-rule:evenodd;clip-rule:evenodd;fill:#262A71;}
	.st30{fill-rule:evenodd;clip-rule:evenodd;fill:#151145;}
	.st31{fill-rule:evenodd;clip-rule:evenodd;fill:#27327B;}
	.st32{fill-rule:evenodd;clip-rule:evenodd;fill:#2B3682;}
	.st33{fill-rule:evenodd;clip-rule:evenodd;fill:#F48D67;}
	.st34{fill-rule:evenodd;clip-rule:evenodd;fill:#7FB5F7;}
	.st35{fill-rule:evenodd;clip-rule:evenodd;fill:#B0D0FF;}
	.st36{fill-rule:evenodd;clip-rule:evenodd;fill:#EF8D61;}
</style>
<linearGradient id="SVGID_1_" gradientUnits="userSpaceOnUse" x1="512.6923" y1="561.4965" x2="512.6923" y2="178.1081">
	<stop  offset="5.358273e-07" style="stop-color:#FFFFFF"/>
	<stop  offset="1" style="stop-color:#DBE3EE"/>
</linearGradient>
<path class="st0" d="M729.22,228.84V561.5H296.17c0.72-165.43,1.39-190.87,2.12-356.36h96.99c0.18,29.51,0.18,42.33,0,42.81v0.06
	c0,0,0.12-0.06,0.18-0.12v-0.18c0-8.71,7.01-15.72,15.72-15.72c8.71,0,15.72,7.01,15.72,15.72v9.31h69.29v-78.91h62.16v113.74
	c-0.06,0.24-0.06,0.42-0.06,0.67v38.27c0,5.62,4.53,10.16,10.16,10.16c5.56,0,10.1-4.53,10.1-10.16v-29.81
	c19.53-0.06,33.68-0.12,43.05-0.12c9.37,0,13.97,0.06,14.39,0.12c1.51-0.18,0-23.1,0-23.1h29.57v27.15c0,4.11,3.33,7.44,7.44,7.44
	c4.11,0,7.44-3.33,7.44-7.44v-76.19H729.22z"/>
<linearGradient id="SVGID_2_" gradientUnits="userSpaceOnUse" x1="512.6923" y1="844.8919" x2="512.6923" y2="492.7719">
	<stop  offset="0.4065" style="stop-color:#FFFFFF"/>
	<stop  offset="1" style="stop-color:#DAE4EF"/>
</linearGradient>
<ellipse class="st1" cx="512.69" cy="668.83" rx="370.98" ry="176.06"/>
<linearGradient id="SVGID_3_" gradientUnits="userSpaceOnUse" x1="679.5563" y1="723.7226" x2="522.9786" y2="452.522">
	<stop  offset="0.0938" style="stop-color:#FFFFFF"/>
	<stop  offset="0.9362" style="stop-color:#BBCBE0"/>
</linearGradient>
<polygon class="st2" points="848.01,626.47 601.27,764.9 354.53,549.78 655.95,527.8 "/>
<linearGradient id="SVGID_4_" gradientUnits="userSpaceOnUse" x1="356.2541" y1="726.5624" x2="356.2541" y2="621.1129">
	<stop  offset="0" style="stop-color:#FFFFFF;stop-opacity:0"/>
	<stop  offset="1" style="stop-color:#9DB9E0"/>
</linearGradient>
<polygon class="st3" points="410.92,714.15 351.55,726.56 301.58,621.11 326.49,631.52 "/>
<g>
	<g>
		<linearGradient id="SVGID_5_" gradientUnits="userSpaceOnUse" x1="321.999" y1="189.93" x2="345.291" y2="189.93">
			<stop  offset="0" style="stop-color:#E7EDF5"/>
			<stop  offset="0.5658" style="stop-color:#B3C7DD"/>
		</linearGradient>
		<path class="st4" d="M333.65,201.58c-6.42,0-11.65-5.22-11.65-11.65s5.22-11.65,11.65-11.65s11.65,5.22,11.65,11.65
			S340.07,201.58,333.65,201.58z M333.65,184.76c-2.85,0-5.17,2.32-5.17,5.17c0,2.85,2.32,5.17,5.17,5.17
			c2.85,0,5.17-2.32,5.17-5.17C338.81,187.08,336.5,184.76,333.65,184.76z"/>
	</g>
	<g>
		<linearGradient id="SVGID_6_" gradientUnits="userSpaceOnUse" x1="323.1306" y1="371.2308" x2="339.946" y2="371.2308">
			<stop  offset="0" style="stop-color:#E7EDF5"/>
			<stop  offset="0.5658" style="stop-color:#B3C7DD"/>
		</linearGradient>
		<circle class="st5" cx="331.54" cy="371.23" r="8.41"/>
	</g>
	<g>
		<linearGradient id="SVGID_7_" gradientUnits="userSpaceOnUse" x1="638.3259" y1="477.0406" x2="673.5706" y2="477.0406">
			<stop  offset="0" style="stop-color:#E7EDF5"/>
			<stop  offset="0.5658" style="stop-color:#B3C7DD"/>
		</linearGradient>
		<circle class="st6" cx="655.95" cy="477.04" r="17.62"/>
	</g>
	<g>
		<linearGradient id="SVGID_8_" gradientUnits="userSpaceOnUse" x1="633.2813" y1="295.4135" x2="647.1849" y2="295.4135">
			<stop  offset="0" style="stop-color:#E7EDF5"/>
			<stop  offset="0.5658" style="stop-color:#B3C7DD"/>
		</linearGradient>
		<circle class="st7" cx="640.23" cy="295.41" r="6.95"/>
	</g>
	<g>
		<linearGradient id="SVGID_9_" gradientUnits="userSpaceOnUse" x1="734.4229" y1="240.369" x2="746.3958" y2="240.369">
			<stop  offset="0" style="stop-color:#E7EDF5"/>
			<stop  offset="0.5658" style="stop-color:#B3C7DD"/>
		</linearGradient>
		<circle class="st8" cx="740.41" cy="240.37" r="5.99"/>
	</g>
	<g>
		<linearGradient id="SVGID_10_" gradientUnits="userSpaceOnUse" x1="796.2039" y1="376.5219" x2="812.7647" y2="376.5219">
			<stop  offset="0" style="stop-color:#E7EDF5"/>
			<stop  offset="0.5658" style="stop-color:#B3C7DD"/>
		</linearGradient>
		<circle class="st9" cx="804.48" cy="376.52" r="8.28"/>
	</g>
	<g>
		<linearGradient id="SVGID_11_" gradientUnits="userSpaceOnUse" x1="678.4961" y1="611.0421" x2="694.1489" y2="611.0421">
			<stop  offset="0" style="stop-color:#E7EDF5"/>
			<stop  offset="0.5658" style="stop-color:#B3C7DD"/>
		</linearGradient>
		<circle class="st10" cx="686.32" cy="611.04" r="7.83"/>
	</g>
	<g>
		<linearGradient id="SVGID_12_" gradientUnits="userSpaceOnUse" x1="564.5058" y1="198.3382" x2="587.7978" y2="198.3382">
			<stop  offset="0" style="stop-color:#E7EDF5"/>
			<stop  offset="0.5658" style="stop-color:#B3C7DD"/>
		</linearGradient>
		<path class="st11" d="M576.15,209.98c-6.42,0-11.65-5.22-11.65-11.65s5.22-11.65,11.65-11.65s11.65,5.22,11.65,11.65
			S582.57,209.98,576.15,209.98z M576.15,193.17c-2.85,0-5.17,2.32-5.17,5.17c0,2.85,2.32,5.17,5.17,5.17
			c2.85,0,5.17-2.32,5.17-5.17C581.32,195.49,579,193.17,576.15,193.17z"/>
	</g>
	<g>
		<linearGradient id="SVGID_13_" gradientUnits="userSpaceOnUse" x1="448.3486" y1="656.1019" x2="471.6406" y2="656.1019">
			<stop  offset="0" style="stop-color:#E7EDF5"/>
			<stop  offset="0.5658" style="stop-color:#B3C7DD"/>
		</linearGradient>
		<path class="st12" d="M459.99,667.75c-6.42,0-11.65-5.22-11.65-11.65s5.22-11.65,11.65-11.65s11.65,5.22,11.65,11.65
			S466.42,667.75,459.99,667.75z M459.99,650.93c-2.85,0-5.17,2.32-5.17,5.17c0,2.85,2.32,5.17,5.17,5.17
			c2.85,0,5.17-2.32,5.17-5.17C465.16,653.25,462.84,650.93,459.99,650.93z"/>
	</g>
	<g>
		<linearGradient id="SVGID_14_" gradientUnits="userSpaceOnUse" x1="225.3492" y1="471.3705" x2="254.9319" y2="471.3705">
			<stop  offset="0" style="stop-color:#E7EDF5"/>
			<stop  offset="0.5658" style="stop-color:#B3C7DD"/>
		</linearGradient>
		<path class="st13" d="M251.38,474.92H228.9c-1.96,0-3.55-1.59-3.55-3.55l0,0c0-1.96,1.59-3.55,3.55-3.55h22.48
			c1.96,0,3.55,1.59,3.55,3.55l0,0C254.93,473.33,253.34,474.92,251.38,474.92z"/>
	</g>
	<g>
		<linearGradient id="SVGID_15_" gradientUnits="userSpaceOnUse" x1="236.4505" y1="471.3705" x2="243.8306" y2="471.3705">
			<stop  offset="0" style="stop-color:#E7EDF5"/>
			<stop  offset="0.5658" style="stop-color:#B3C7DD"/>
		</linearGradient>
		<path class="st14" d="M236.45,482.47v-22.2c0-2.04,1.65-3.69,3.69-3.69h0c2.04,0,3.69,1.65,3.69,3.69v22.2
			c0,2.04-1.65,3.69-3.69,3.69h0C238.1,486.16,236.45,484.51,236.45,482.47z"/>
	</g>
	<g>
		<linearGradient id="SVGID_16_" gradientUnits="userSpaceOnUse" x1="234.5588" y1="321.4448" x2="253.7641" y2="321.4448">
			<stop  offset="0" style="stop-color:#E7EDF5"/>
			<stop  offset="0.5658" style="stop-color:#B3C7DD"/>
		</linearGradient>
		<path class="st15" d="M251.46,323.75h-14.6c-1.27,0-2.3-1.03-2.3-2.3l0,0c0-1.27,1.03-2.3,2.3-2.3h14.6c1.27,0,2.3,1.03,2.3,2.3
			l0,0C253.76,322.72,252.73,323.75,251.46,323.75z"/>
	</g>
	<g>
		<linearGradient id="SVGID_17_" gradientUnits="userSpaceOnUse" x1="241.7658" y1="321.4448" x2="246.5571" y2="321.4448">
			<stop  offset="0" style="stop-color:#E7EDF5"/>
			<stop  offset="0.5658" style="stop-color:#B3C7DD"/>
		</linearGradient>
		<path class="st16" d="M241.77,328.65v-14.41c0-1.32,1.07-2.4,2.4-2.4l0,0c1.32,0,2.4,1.07,2.4,2.4v14.41c0,1.32-1.07,2.4-2.4,2.4
			l0,0C242.84,331.05,241.77,329.97,241.77,328.65z"/>
	</g>
	<g>
		<linearGradient id="SVGID_18_" gradientUnits="userSpaceOnUse" x1="422.5796" y1="262.0497" x2="442.5911" y2="262.0497">
			<stop  offset="0" style="stop-color:#E7EDF5"/>
			<stop  offset="0.5658" style="stop-color:#B3C7DD"/>
		</linearGradient>
		<path class="st17" d="M442.59,279.8c-6.67-9.69-13.34-19.37-20.01-29.06c1.13-2.15,2.26-4.3,3.39-6.44
			c4.97,0.26,9.95,0.53,14.92,0.79C441.46,256.66,442.03,268.23,442.59,279.8z"/>
	</g>
	<g>
		<linearGradient id="SVGID_19_" gradientUnits="userSpaceOnUse" x1="405.7217" y1="274.8692" x2="435.1822" y2="274.8692">
			<stop  offset="0" style="stop-color:#E7EDF5"/>
			<stop  offset="0.5658" style="stop-color:#B3C7DD"/>
		</linearGradient>
		<path class="st18" d="M435.18,284.2c-9.25-1.7-18.49-3.41-27.74-5.11c-0.57-1.85-1.15-3.71-1.73-5.56
			c2.96-2.66,5.92-5.33,8.88-7.99C421.46,271.76,428.32,277.98,435.18,284.2z"/>
	</g>
	<g>
		<linearGradient id="SVGID_20_" gradientUnits="userSpaceOnUse" x1="447.1809" y1="261.741" x2="461.8323" y2="261.741">
			<stop  offset="0" style="stop-color:#E7EDF5"/>
			<stop  offset="0.5658" style="stop-color:#B3C7DD"/>
		</linearGradient>
		<path class="st19" d="M447.18,275.2c0.69-8.3,1.39-16.6,2.08-24.9c1.58-0.67,3.17-1.34,4.75-2.01c2.61,2.38,5.21,4.76,7.82,7.13
			C456.95,262.01,452.06,268.6,447.18,275.2z"/>
	</g>
</g>
<linearGradient id="SVGID_21_" gradientUnits="userSpaceOnUse" x1="589.3985" y1="542.9928" x2="589.3985" y2="324.9539">
	<stop  offset="0" style="stop-color:#CFDBEA"/>
	<stop  offset="1" style="stop-color:#AEC3DA"/>
</linearGradient>
<polygon class="st20" points="499.99,526.54 649.41,542.99 678.81,346.5 499.99,324.95 "/>
<linearGradient id="SVGID_22_" gradientUnits="userSpaceOnUse" x1="427.2572" y1="324.9539" x2="427.2572" y2="544.6538">
	<stop  offset="0" style="stop-color:#CFDBEA"/>
	<stop  offset="1" style="stop-color:#AEC3DA"/>
</linearGradient>
<polygon class="st21" points="499.99,529.7 383.93,544.65 354.53,348.16 499.99,324.95 "/>
<linearGradient id="SVGID_23_" gradientUnits="userSpaceOnUse" x1="438.0708" y1="348.1968" x2="438.0708" y2="593.8828">
	<stop  offset="0" style="stop-color:#E7EDF5"/>
	<stop  offset="0.5658" style="stop-color:#B3C7DD"/>
</linearGradient>
<polygon class="st22" points="354.53,549.78 521.62,593.88 521.62,392.3 354.53,348.2 "/>
<linearGradient id="SVGID_24_" gradientUnits="userSpaceOnUse" x1="600.212" y1="346.5006" x2="600.212" y2="593.8828">
	<stop  offset="0" style="stop-color:#E7EDF5"/>
	<stop  offset="0.5658" style="stop-color:#B3C7DD"/>
</linearGradient>
<polygon class="st23" points="678.81,548.08 521.62,593.88 521.62,390.61 678.81,346.5 "/>
<linearGradient id="SVGID_25_" gradientUnits="userSpaceOnUse" x1="590.1117" y1="351.0588" x2="648.9749" y2="453.0129">
	<stop  offset="0" style="stop-color:#E7EDF5"/>
	<stop  offset="0.5658" style="stop-color:#B3C7DD"/>
</linearGradient>
<polygon class="st24" points="711.85,416.71 566.82,467.32 521.62,390.61 678.81,346.5 "/>
<linearGradient id="SVGID_26_" gradientUnits="userSpaceOnUse" x1="414.8799" y1="348.1617" x2="414.8799" y2="467.3174">
	<stop  offset="0" style="stop-color:#E7EDF5"/>
	<stop  offset="0.5658" style="stop-color:#B3C7DD"/>
</linearGradient>
<polygon class="st25" points="313.53,421.8 484.83,467.32 516.23,390.88 354.53,348.16 "/>
<path id="圆角矩形-5_30_" class="st26" d="M314.16,490.84c-1.73,0-3.14,1.52-3.14,3.4v10.46c0,1.88,1.4,3.4,3.14,3.4
	s3.14-1.52,3.14-3.4v-10.46C317.29,492.36,315.89,490.84,314.16,490.84z"/>
<path id="Combined-shape-564_30_" class="st27" d="M318.34,485.09c-5.6-0.38-6.46,3.35-6.31,6.22c-0.3-0.25-0.67-0.49-1.01-0.47
	c-1.16,0.07-1.05,1.57-1.05,1.57s-0.15,0.62,0.52,1.57c0.5,0.72,1.9,1.3,2.42,1.5l0.2,0.6c0,0,0.83,1.77,1.57,2.61
	c1.04,1.19,1.57,1.57,1.57,1.57s1,0.77,2.09,1.05c1,0.25,2.09,0,2.09,0s1.32-0.16,1.57-2.09c0.15-1.19,0.21-2.68,0.21-4.16l0-0.37
	c-0.02-2.81-0.21-5.41-0.21-5.41S321.67,485.31,318.34,485.09z"/>
<path id="形状-17_30_" class="st28" d="M316.25,489.79c0,0,3.42,0.65,5.23,0c1.85-0.66,2.09-2.61,2.09-2.61s0.05-1.46-0.52-2.61
	c-0.45-0.91-1.57-1.57-1.57-1.57s-0.95-0.7-2.09-0.52c-0.91,0.14-1.57,1.05-1.57,1.05s-1.19,1.18-2.09,1.57c-0.93,0.4-2.09,0-2.09,0
	s-1.82-0.42-3.14,1.05c-2,2.23-1.57,5.23-1.57,5.23s0.33,1.95,1.05,3.66c0.58,1.4,1.57,2.09,1.57,2.09s0.52,0.38,1.05,0
	c0.59-0.43,0-1.05,0-1.05l-0.52-1.05c0,0-2.06,0-2.09-3.14c-0.01-0.52,1.05-0.52,1.05-0.52s0.6-0.01,1.05,0.52
	c0.25,0.29,0.52,1.57,0.52,1.57s0.22-2.55,1.05-3.14C314.62,489.61,316.25,489.79,316.25,489.79z"/>
<path id="形状-30-拷贝_30_" class="st29" d="M302.26,613.19l-3.11,4.84l13.19,8.49c0,0,1.06-1.38,0.38-3.49
	c-0.68-2.11-3.83-3.71-3.83-3.71s-1.06-0.61-1.48-1.57c-0.32-0.74-0.31-1.45-0.31-1.45L302.26,613.19z"/>
<path id="形状-34_16_" class="st30" d="M326.18,552.55l2.61,25.63c0,0,0.11,0.78,0,1.57c-0.15,1.02-0.52,2.09-0.52,2.09
	l-18.83,36.08l-6.28-4.18c0,0,4.17-16.96,7.84-26.15c1.52-3.81,5.23-6.28,5.23-6.28s-4.85-9.27-7.32-17.78
	c-1.33-4.57-1.05-10.98-1.05-10.98H326.18z"/>
<path id="形状-29-拷贝_16_" class="st31" d="M321.48,551.5c0,0-0.48,15.99-2.09,31.9c-2,19.76-5.23,40.27-5.23,40.27h-5.75
	c0,0-2.83-18.96-3.14-31.9c-0.19-8.13,1.57-12.55,1.57-12.55s-1.8-7.82-3.14-15.69c-0.95-5.59-1.05-12.03-1.05-12.03H321.48z"/>
<path id="形状-30_30_" class="st32" d="M308.4,623.67v5.75h15.69c0,0,0.15-1.73-1.57-3.14c-1.71-1.4-5.23-1.05-5.23-1.05
	s-1.22,0.06-2.09-0.52c-0.67-0.45-1.05-1.05-1.05-1.05H308.4z"/>
<path id="形状-26-拷贝_6_" class="st33" d="M334.94,521.5c0,0,2.5-0.9,3.56-1.01c0.87-0.09-0.05,1.17-0.05,1.17
	s0.34,0.29,1.17,0.05c0.36-0.1,1.41-0.72,1.68-0.86c0.44-0.24,0.71-0.2,0.71-0.2s2.1,0.26,0.56,3.3c-0.86,1.69-6.25,3.7-6.25,3.7
	L334.94,521.5z"/>
<path id="形状-31_7_" class="st34" d="M324.76,510l-4.86,14.59l14.82-3.41l1.32,6.16l-21.17,5.88c0,0-0.96-0.06-1.57-0.51
	c-0.65-0.48-0.96-1.35-0.96-1.35l-2.08-8.66L324.76,510z"/>
<path class="st35" d="M326.18,511.76v40.79h-26.15v-40.27c0,0-0.04-1.98,1.05-3.66c1.07-1.65,3.14-2.61,3.14-2.61l5.68-3.06
	l1.11-0.6c0,0,0.11,0.29,0.31,0.71c0.27,0.53,0.7,1.28,1.26,1.9c1.31,1.46,3.14,2.62,3.14,2.62s0.71-0.37,1.05-1.05
	c0.27-0.54,0.4-1.22,0.47-1.66v-0.02c0.04-0.25,0.05-0.41,0.05-0.41s0.41,0.04,1.05,0.17c1.31,0.26,3.57,0.91,5.22,2.44
	C325.82,509.14,326.18,511.76,326.18,511.76z"/>
<path id="形状-26_9_" class="st36" d="M312.09,501.15c0,0-0.06-2.66,0.18-3.69c0.19-0.86,1.09,0.42,1.09,0.42s0.38-0.23,0.42-1.09
	c0.02-0.37-0.23-1.56-0.28-1.86c-0.08-0.49,0.04-0.74,0.04-0.74s0.91-1.91,3.31,0.53c1.33,1.35,1.51,7.11,1.51,7.11L312.09,501.15z"
	/>
<path class="st34" d="M318.59,501.65l-0.25,2.96l-0.41,4.84v0.02l-1.28,15.4c0,0.03-0.01,0.79-0.88,1.41
	c-0.48,0.33-1.54,0.59-1.54,0.59l-14.2,3.21v-9.22l8.97-1.2l1.77-12.68l0.55-3.92l0.24-1.73L318.59,501.65z"/>
</svg>
